# xmcd CD database file
#
# Track frame offsets:
#	150
#	39656
#	52271
#	78167
#	100670
#	126864
#	140703
#	156080
#	169201
#	184144
#	196127
#	234004
#	261296
#	286685
#	306323
#	321359
#
# Disc length: 4633 seconds
#
# Revision: 2
# Processed by: cddbd v1.5.2PL0 Copyright (c) Steve Scherf et al.
# Submitted via: CDex 1.50
#
DISCID=df121710
DTITLE=Verschiedene - Edle Saxophon-Klassiker
DYEAR=2009
DGENRE=Jazz
TTITLE0=Stolen Moments - Oliver Nelson
TTITLE1=Summertime - Charlie Parker
TTITLE2=Body And Soul - Gerry Mulligan
TTITLE3=The Shadow On Your Smile - Dexter Gordon
TTITLE4=Desafinado - Coleman Hawkins
TTITLE5=El Condor Pasa - Paul Desmond
TTITLE6=My Funny Valentine - Ben Webster
TTITLE7=Alfie - Roland Kirk
TTITLE8='Round Midnight - Benny Carter
TTITLE9=Charade - Stan Getz
TTITLE10=Stardust - John Coltrane
TTITLE11=You Are The Sunshine Of My Life - Grover Washington Jr.
TTITLE12=Tequila - David Sanborn
TTITLE13=Insensatez - Klaus Doldinger
TTITLE14=In A Sentimental Mood - Sonny Rollins
TTITLE15=Ligia - Stanley Turrentine
EXTD=YEAR: 2009
EXTT0=
EXTT1=
EXTT2=
EXTT3=
EXTT4=
EXTT5=
EXTT6=
EXTT7=
EXTT8=
EXTT9=
EXTT10=
EXTT11=
EXTT12=
EXTT13=
EXTT14=
EXTT15=
PLAYORDER=
